<svg width="501" height="674" viewBox="0 0 501 674" fill="none" xmlns="http://www.w3.org/2000/svg">
<path d="M172.01 391.01H170.54V656.65H437.65V389.54H170.54V391.01H172.01V392.48H434.71V653.71H173.48V391.01H172.01V392.48V391.01Z" fill="rgb(255, 69, 197)"/>
<path d="M171.75 388.7L17.42 165L15 166.67L169.33 390.37" fill="rgb(255, 69, 197)"/>
<path d="M437.65 388.7L283.32 165L280.9 166.67L435.23 390.37" fill="rgb(255, 69, 197)"/>
<path d="M173.24 653.11L18.91 429.41L16.49 431.09L170.82 654.79" fill="rgb(255, 69, 197)"/>
<path d="M243.23 53.52C243.23 46.19 245.48 37.35 252.21 29.72C258.95 22.09 269.57 17 284.39 17C305.5 17 319.12 30.62 319.12 41.85V42.3C319.12 45.89 316.58 48.74 313.43 50.68C299.66 59.06 263.88 60.26 261.49 77.18C268.23 84.81 277.81 88.11 287.39 88.11C298.77 88.11 309.99 83.62 316.13 76.28L317.33 77.18C315.38 79.87 312.69 82.27 309.4 84.22C303.86 87.81 295.48 91.11 284.55 91.11H283.35C258.5 91.1 244.88 74.33 243.38 57.12C243.23 55.92 243.23 54.72 243.23 53.53V53.52ZM252.66 51.57V53.22C253.26 62.95 256.1 70.43 260.44 75.97C261.64 59.35 294.72 57.71 305.8 49.18C309.24 46.64 309.84 43.04 309.84 40.65C309.84 39.9 309.69 39 309.54 38.11C306.4 26.13 297.27 18.95 282.45 18.95C269.58 18.95 259.1 27.93 254.61 40.06C253.26 43.8 252.66 47.54 252.66 51.59V51.57Z" fill="rgb(255, 69, 197)"/>
<path d="M101.14 186.92C114.01 182.43 126.44 175.69 126.44 164.32V163.87C125.24 153.84 121.5 148.45 110.12 148.45H109.52C102.93 148.6 99.49 150.7 97.69 152.94C96.64 154.29 95.89 155.78 95.74 157.43H85.71C85.71 157.13 87.81 148.9 104.72 147.25C106.52 147.1 108.61 146.95 110.86 146.95C130.17 146.95 135.41 155.78 135.41 174.34V208.02C135.41 246.94 171.63 254.27 184.21 254.27C196.79 254.27 218.64 251.58 218.64 238.85C218.64 215.65 150.98 231.81 150.98 211.01C150.98 207.42 151.73 205.17 157.57 197.39C150.53 192 144.85 185.41 144.85 175.83C144.85 158.32 163.71 146.19 184.07 146.19C188.26 146.19 192.6 146.64 196.79 147.84C196.94 147.69 196.94 147.54 197.09 147.39C201.43 142.15 209.21 138.11 218.94 138.11C219.84 138.11 220.89 138.26 221.93 138.26V147.84C217.59 145 213.85 143.95 210.85 143.5C210.25 143.5 209.5 143.35 208.9 143.35C205.01 143.35 201.42 145.3 199.17 147.84L198.72 148.44C214.74 153.68 223.72 165.06 223.72 175.83C223.72 193.64 204.11 205.62 184.2 205.62C177.46 205.62 170.43 204.12 164.29 201.13C162.64 200.38 160.85 199.48 159.2 198.44L158 199.94C157.1 200.99 156.35 202.04 155.75 203.08C154.7 204.88 153.5 207.42 153.5 209.37V209.67C153.5 219.1 172.06 219.85 191.22 220.9C210.23 221.8 229.24 223.89 229.24 237.07C229.24 250.25 203.49 256.23 182.54 256.23C172.36 256.23 126.86 253.69 126.86 211.17C123.57 213.27 112.19 220.75 99.47 220.75C86.75 220.75 75.52 215.66 75.52 203.54C75.52 195.91 88.39 191.42 101.12 186.92H101.14ZM84.97 201.74V202.49C85.72 213.87 93.5 217.61 101.89 217.61C111.17 217.61 121.2 213.27 126.89 208.78V170.76C122.85 179.74 111.77 184.83 102.34 188.27C95.75 190.67 90.22 193.36 87.07 196.5C85.72 197.85 84.97 199.64 84.97 201.74V201.74ZM153.53 176.74C153.53 177.19 152.78 181.23 156.37 187.97C157.72 190.22 159.06 192.01 160.41 193.66C166.85 185.28 177.77 171.95 195.74 149.2C192.9 148.3 189.9 147.85 186.76 147.85C181.52 147.85 176.13 149.05 170.59 151.44C163.41 154.43 158.02 160.27 155.47 166.86C154.12 170 153.52 173.3 153.52 176.74H153.53ZM161.91 195C167.9 200.39 175.98 202.93 184.21 202.93C189.75 202.93 195.14 201.73 199.93 199.79C211.01 195.15 215.35 184.82 215.35 176.44C215.35 175.09 215.8 170.75 212.36 164.02C208.77 156.98 203.83 152.34 197.69 149.8L161.91 195.01V195Z" fill="rgb(255, 69, 197)"/>
<path d="M226.46 183.77C226.46 162.36 244.42 148.14 265.23 148.14C268.07 148.14 271.22 148.44 274.36 149.04C271.52 148.59 268.52 148.59 265.53 149.04C251.01 151.14 239.63 162.06 235.74 176.13C234.39 180.47 234.09 184.96 234.54 189.3C236.19 204.72 248.61 218.94 264.78 218.94C284.54 218.94 299.96 200.68 299.96 181.52C301.16 181.07 302.36 180.62 303.7 180.17C304.9 179.72 306.24 179.27 307.59 178.67C307.89 180.32 308.04 182.11 308.04 183.76C308.04 205.47 289.03 220.73 267.92 220.73C246.81 220.73 226.46 205.61 226.46 183.76V183.77ZM274.36 179.73C269.87 177.63 265.83 173.59 265.53 168.35C265.23 166.1 265.53 163.86 266.58 161.61C268.68 156.67 273.62 153.53 278.7 152.48C281.39 151.88 284.09 151.88 286.78 152.63C292.02 154.13 297.71 158.62 300.7 163.11C301.75 164.16 302.5 165.36 303.09 166.55C304.74 169.09 305.93 171.94 306.83 174.93C309.08 173.88 311.02 172.53 312.97 170.89C314.92 169.39 316.26 168.2 317.31 167.3V159.07C317.01 155.03 314.62 151.74 311.17 149.64V148.74C316.11 147.69 321.35 145.75 326.59 143.05V160.86C331.08 158.02 335.42 155.32 339.76 152.78C343.05 150.83 350.24 147.09 354.28 147.09C357.72 146.94 360.57 147.24 362.81 148.14C365.06 149.04 366.7 150.09 367.75 151.43C369.1 152.93 370 154.72 370.59 156.67H360.11L359.96 155.62C359.81 154.87 359.36 154.12 358.91 153.22C357.56 150.97 355.17 149.93 352.62 149.93C345.44 149.93 334.66 157.12 328.97 161.16C325.68 163.56 322.38 165.95 319.24 168.35C312.8 173.29 305.32 177.33 297.68 179.88C293.64 181.23 289.3 181.83 284.66 181.68C280.47 181.53 277.03 180.93 274.33 179.73H274.36ZM280.05 154.28C273.61 154.28 267.78 159.37 267.33 165.96C267.18 168.36 267.63 170.6 268.83 172.7C271.67 178.39 278.86 180.18 284.7 180.18C285.6 180.18 286.8 180.03 288.14 179.88C289.49 179.73 290.83 179.58 292.33 179.43C293.68 179.28 295.17 178.98 296.52 178.53C297.87 178.23 298.91 177.93 299.66 177.48C299.51 175.38 298.91 173.14 298.16 170.59C295.17 162.51 289.78 154.27 280.05 154.27V154.28ZM311.18 218.65V217.75C314.62 215.8 317.02 212.21 317.32 208.17V170.9C318.97 169.85 320.46 168.95 322.11 167.91C323.61 167.01 325.1 166.11 326.6 165.07V208.48C326.9 212.37 329.44 215.67 332.59 217.76V218.66H311.18V218.65Z" fill="rgb(255, 69, 197)"/>
<path d="M368.31 203.53C368.31 195.9 381.18 191.7 393.91 187.06C406.78 182.42 419.21 175.83 419.21 164.31V163.86C418.01 154.13 414.27 148.59 402.89 148.59H402.29C395.7 148.74 392.26 150.84 390.46 153.08C389.41 154.43 388.66 155.77 388.51 157.42H378.48L379.08 156.07C380.13 153.67 385.07 148.59 397.49 147.39C398.39 147.24 399.44 147.09 400.48 147.09H403.62C422.93 147.09 428.17 155.92 428.17 174.48V207.56C428.32 211.75 430.57 215.64 434.16 217.89V218.79H427.27C425.02 218.79 423.23 218.04 421.88 216.54C420.38 215.04 419.63 213.25 419.63 211.15C416.34 213.25 404.96 220.73 392.24 220.73C382.51 220.73 374.13 217.89 370.24 211.3C368.89 209.2 368.29 206.66 368.29 203.52L368.31 203.53ZM377.74 201.88V202.63C378.79 213.86 386.12 217.6 394.66 217.6C403.79 217.6 414.12 213.26 419.66 208.92V170.9C415.62 179.88 404.54 184.82 395.11 188.26C388.52 190.66 382.99 193.35 379.84 196.49C378.49 197.99 377.74 199.78 377.74 201.88Z" fill="rgb(255, 69, 197)"/>
<path d="M429.53 141.11C429.83 137.22 431.03 133.78 433.12 130.63C436.86 125.39 443.45 120 457.67 120C468.9 120 476.53 124.04 481.02 129.28C485.51 134.67 486.11 139.61 486.11 142.45C486.11 143.65 485.96 144.85 485.66 145.89C483.56 154.27 475.78 161.16 468.74 168.49C461.56 175.97 455.12 186 455.12 200.52H453.32C453.32 168.79 472.33 165.94 477.72 143.94C478.02 142.59 478.17 141.25 478.17 139.9C478.17 137.06 477.72 132.57 474.13 128.22C470.54 123.88 464.85 121.93 459.31 121.93C458.26 121.93 456.91 121.93 455.72 122.08C446.29 123.13 442.1 128.07 440.3 132.41C439.4 134.66 438.95 137.05 438.95 139.6V141.1H429.52L429.53 141.11ZM448.09 213.41C448.09 210.42 450.79 208.02 454.23 208.02C457.67 208.02 460.37 210.41 460.37 213.41C460.37 216.41 457.67 218.8 454.23 218.8C452.58 218.8 451.09 218.2 449.89 217.15C448.69 216.1 448.09 214.75 448.09 213.41Z" fill="rgb(255, 69, 197)"/>
</svg>
