<?xml version="1.0" encoding="UTF-8"?><svg id="Layer_1" xmlns="http://www.w3.org/2000/svg" viewBox="0 0 670.9 491.65"><defs><style>.cls-1{fill:#ef003a;}.cls-2{fill:none;stroke:#ef003a;stroke-width:2.94px;}</style></defs><g><rect class="cls-2" x="249.71" y="1.47" width="264.17" height="264.17"/><line class="cls-2" x1="515.36" y1="267.12" x2="669.69" y2="490.82"/><line class="cls-2" x1="249.45" y1="267.12" x2="403.78" y2="490.82"/><line class="cls-2" x1="513.87" y1="2.7" x2="668.2" y2="226.4"/></g><g><path class="cls-1" d="M0,117.48c0-7.33,2.25-16.17,8.98-23.8,6.74-7.63,17.36-12.72,32.18-12.72,21.11,0,34.73,13.62,34.73,24.85v.45c0,3.59-2.54,6.44-5.69,8.38-13.77,8.38-49.55,9.58-51.94,26.49,6.74,7.63,16.32,10.93,25.9,10.93,11.38,0,22.6-4.49,28.74-11.83l1.2,.9c-1.95,2.7-4.64,5.09-7.93,7.04-5.54,3.59-13.92,6.89-24.85,6.89h-1.2C15.27,155.05,1.65,138.29,.15,121.07c-.15-1.2-.15-2.4-.15-3.59Zm9.43-1.95v1.65c.6,9.73,3.44,17.21,7.78,22.75,1.2-16.62,34.28-18.26,45.36-26.79,3.44-2.54,4.04-6.14,4.04-8.53,0-.75-.15-1.65-.3-2.54-3.14-11.98-12.27-19.16-27.09-19.16-12.87,0-23.35,8.98-27.84,21.11-1.35,3.74-1.95,7.48-1.95,11.53Z"/><path class="cls-1" d="M135.31,122.42c0-31.88,45.21-23.95,61.82-38.17,3.74-3.14,5.39-7.63,5.39-11.53v-29.94c5.24,2.54,10.18,4.64,15.57,5.69v.9c-3.74,2.25-5.84,5.39-6.14,9.43v83.53c.45,4.04,2.54,7.63,5.99,9.88v.9h-6.89c-4.04,0-7.63-2.84-8.23-6.44v-7.93c-3.44,5.84-10.93,15.12-26.2,16.32-2.1,.15-4.19,.3-6.14,.3-6.14,0-14.52-.6-22.3-5.54-3.89-2.4-7.04-5.84-9.28-10.33-2.4-4.34-3.59-10.03-3.59-17.06Zm9.28-.3c0,1.05,0,2.1,.15,3.14,1.65,20.66,12.27,27.84,29.19,27.84h.9c4.19,0,9.13-1.2,13.77-3.59,8.98-4.64,14.22-13.92,14.22-23.95v-41.76c-.15-.45-.15-1.05-.15-1.5v-1.5c-5.99,10.63-21.26,13.62-34.58,17.21-9.13,2.54-16.62,6.29-20.81,13.32-1.8,2.84-2.69,6.44-2.69,10.78Z"/><path class="cls-1" d="M222.12,105.5c5.54-17.51,21.85-25.6,39.52-25.6,5.24,0,10.03,.75,14.37,2.25,9.43,3.59,20.36,11.38,20.36,22.6,.15,1.95-.45,3.74-1.5,5.09-3.14,4.04-7.78,5.84-12.57,7.33-7.18,2.25-14.52,4.34-21.85,6.44-8.23,2.25-20.21,6.89-21.7,16.47,6.44,7.04,14.82,10.33,24.4,10.33,19.16,0,31.43-13.02,41.31-28.29v-29.64c-.3-4.19-2.54-7.63-5.99-9.88v-.9c5.24-.9,10.63-2.99,15.27-5.54v31.58c6.14-9.43,17.36-26.79,28.74-28.14,4.94-.6,9.73-.45,14.52,.3,9.73,1.8,17.21,6.74,21.55,15.72,2.25,4.49,2.99,10.03,2.54,16.76-1.35,17.51-16.32,23.8-31.73,27.39-5.39,1.2-10.48,2.39-15.27,3.74-7.48,2.25-15.42,4.79-19.16,12.27-1.05,2.1-1.5,4.64-1.35,7.63v13.92c.3,4.04,2.4,8.38,5.99,10.48v.9h-21.25v-.9c3.74-2.1,5.84-6.29,6.14-10.48v-49.1c1.5-2.25,2.99-4.64,4.64-6.89,1.65-2.25,3.14-4.64,4.64-6.89v39.52c4.19-7.63,12.57-11.08,20.51-13.47,4.34-1.35,8.68-2.54,13.17-3.89,14.22-3.89,23.95-10.93,24.4-27.09,0-4.34-.6-8.23-1.65-11.53-3.89-10.03-11.38-14.67-22-16.02-2.39-.3-4.79-.15-7.04,.3-7.19,1.8-13.32,8.23-17.51,13.92-3.29,4.49-6.44,9.28-9.58,14.37-3.14,5.24-6.44,10.33-9.88,15.57-6.44,9.88-14.52,19.01-25.3,24.25-5.24,2.54-11.38,3.89-18.26,3.74-20.51-.45-37.72-12.27-39.97-34.13-.45-4.94,0-9.73,1.5-14.52Zm9.73-2.54c-1.5,4.19-2.25,8.53-1.95,13.17,.45,8.38,2.54,16.17,7.78,22.75,.45-8.98,11.68-13.92,19.01-16.47,6.44-2.1,12.87-4.19,19.31-6.59,4.49-1.65,8.98-4.04,10.63-8.83,.6-1.95,.6-4.04,.15-5.99-3.74-13.32-13.62-19.16-27.09-19.16s-23.35,9.13-27.84,21.11Z"/><path class="cls-1" d="M384.23,118.23c0-20.36,17.51-36.82,39.97-36.82s41.61,16.47,41.61,36.82-17.36,36.82-40.12,36.82c-16.91,0-31.58-9.13-38.17-22.45-2.25-4.49-3.29-9.28-3.29-14.37Zm6.89,2.54c0,.6-.9,5.54,3.29,14.67,4.64,10.63,15.57,16.47,27.39,16.47,5.54,0,11.08-1.35,16.47-4.04,17.06-8.68,25.45-28.14,17.51-46.7-4.64-10.63-15.42-16.47-27.39-16.47-5.84,0-11.53,1.35-17.06,4.19-8.38,4.34-14.82,11.38-17.96,19.61-1.5,3.89-2.25,7.93-2.25,12.27Z"/><path class="cls-1" d="M467.9,83.05h21.26v.9c-3.44,1.65-5.84,5.39-5.84,9.73v39.52c0,12.57,15.42,27.54,33.53,27.54h.75c22.75-.45,29.49-11.52,29.49-19.61v-.6c-.6-13.92-54.34-19.16-54.34-40.86,0-2.54,.45-4.64,1.35-6.44,4.04-9.13,16.17-12.72,27.09-12.72,12.57,0,19.76,2.69,23.95,5.24,2.54,1.65,4.19,3.29,5.24,5.24h-10.33c-.45-1.8-1.35-3.29-2.99-4.64-2.84-2.25-7.63-4.34-16.32-4.34h-1.35c-8.98,0-20.81,4.94-20.81,13.92,0,16.77,56.13,22.15,56.13,41.61,0,17.66-15.42,24.7-38.92,24.7s-41.76-15.72-41.76-25.9v-42.81c-.15-4.04-2.54-7.33-6.14-9.58v-.9Zm11.08-29.04c3.44,0,6.14,2.54,6.14,5.54s-2.69,5.54-6.14,5.54-6.44-2.69-6.44-5.54c0-2.99,2.99-5.54,6.44-5.54Z"/><path class="cls-1" d="M551.73,75.42c.3-3.89,1.5-7.33,3.59-10.48,3.74-5.24,10.33-10.63,24.55-10.63,11.23,0,18.86,4.04,23.35,9.28,4.49,5.39,5.09,10.33,5.09,13.17,0,1.2-.15,2.4-.45,3.44-2.1,8.38-9.88,15.27-16.92,22.6-7.19,7.48-13.62,17.51-13.62,32.03h-1.8c0-31.73,19.01-34.58,24.4-56.58,.3-1.35,.45-2.69,.45-4.04,0-2.84-.45-7.33-4.04-11.68-3.59-4.34-9.28-6.29-14.82-6.29-1.05,0-2.39,0-3.59,.15-9.43,1.05-13.62,5.99-15.42,10.33-.9,2.25-1.35,4.64-1.35,7.19v1.5h-9.43Zm18.56,72.3c0-2.99,2.69-5.39,6.14-5.39s6.14,2.39,6.14,5.39-2.69,5.39-6.14,5.39c-1.65,0-3.14-.6-4.34-1.65-1.2-1.05-1.8-2.4-1.8-3.74Z"/></g></svg>