<?xml version="1.0" encoding="utf-8"?>
<!-- Generator: Adobe Illustrator 24.0.2, SVG Export Plug-In . SVG Version: 6.00 Build 0)  -->
<svg version="1.1" id="Layer_1" xmlns="http://www.w3.org/2000/svg" xmlns:xlink="http://www.w3.org/1999/xlink" x="0px" y="0px"
	 viewBox="0 0 500 500" style="enable-background:new 0 0 500 500;" xml:space="preserve">
<style type="text/css">
	.st0{fill:#FFC000;}
</style>
<g>
	<g>
		<path d="M478.8,376c-0.9,0.6-1.5,1.9-1.8,4c-0.3,2-0.2,3.7,0.5,4.9c0.6,1.2,1.5,1.9,2.7,2.1s2.4-0.3,3.6-1.5s1.8-2.6,1.8-4.3
			c0-1.6-0.3-3-0.9-4s-1.5-1.6-2.7-1.8C480.8,375.2,479.7,375.4,478.8,376z"/>
		<path d="M478.8,380.6c-0.3,2.8,0.3,4.5,1.8,4.9c0.8,0.2,1.5,0.4,2.3,0.6c0.2-1.4,0.3-2.8,0.5-4.3c0.3-2.9-0.3-4.5-1.8-4.9
			c-0.8-0.2-1.5-0.4-2.3-0.6C479.1,377.7,479,379.2,478.8,380.6z"/>
	</g>
	<path d="M40.4,132.6c-7,1.5-11.7,2.9-14.2,4.4s-4.7,3.6-6.8,6.2c-2.1,2.7-3.3,16.7-3.7,41.9c-0.4,25.2,0.6,39.8,3.1,43.7
		s4.9,6.6,7.4,8.1s6,2.8,10.5,4s10.3,2,17.3,2.2s13.8-0.2,20.3-1.5c6.6-1.2,11.5-2.8,14.8-4.8s6.2-5.3,8.6-9.9
		c2.5-4.7,3.7-10.2,3.7-16.5c0-3.2,0-6.4,0-9.6c-4.5,0-9,0-13.6,0c-4.5,0-9,0-13.6,0c0,3.3,0,6.6,0,9.9c0,6.6-1,10.9-3.1,12.9
		s-4.9,3.2-8.6,3.7c-3.7,0.5-7.4,0.1-11.1-1.1c-3.7-1.2-6-2.3-6.8-3.3s-1.2-13-1.2-36s1.2-35.5,3.7-37.5s5.5-3.1,9.2-3.3
		s6.6-0.1,8.6,0.4c2.1,0.5,4.1,1.7,6.2,3.7s3.1,5.5,3.1,10.7c0,2.6,0,5.1,0,7.7c4.5,0,9,0,13.6,0c4.5,0,9,0,13.6,0
		c0-2.5,0-4.9,0-7.4c0-4.9-0.4-8.7-1.2-11.4c-0.8-2.7-3.1-5.8-6.8-9.2c-3.7-3.4-8.2-5.9-13.6-7.4c-5.3-1.5-11.5-2.3-18.5-2.6
		C54.4,130.5,47.4,131.2,40.4,132.6z"/>
	<path d="M166,190.3c0,0.1-0.1,0.3-0.1,0.4l0,0C165.9,190.6,165.9,190.4,166,190.3z"/>
	<path d="M285.1,132.3c-6.6,1.2-11.7,3.1-15.4,5.5c-3.7,2.5-6.4,5.3-8,8.5s-2.5,7.2-2.5,12.1c0,4.9,0.6,8.6,1.8,11s3.5,5.3,6.8,8.5
		s11.1,8.3,23.4,15.4c12.3,7.1,19.5,12,21.6,14.7s3.1,5.6,3.1,8.8s-1.4,5.8-4.3,7.7c-2.9,2-5.8,3.1-8.6,3.3c-2.9,0.2-5.5,0.1-8-0.4
		s-4.7-1.7-6.8-3.7c-2.1-2-3.1-4.9-3.1-8.8c0-2,0-3.9,0-5.9c-4.5,0-9,0-13.6,0c-4.5,0-9,0-13.6,0c0,1.8,0,3.7,0,5.5
		c0,3.7,0.4,6.9,1.2,9.6c0.8,2.7,3.1,5.8,6.8,9.2c3.7,3.4,8.2,5.9,13.6,7.4c5.3,1.5,11.5,2.3,18.5,2.6c7,0.2,13.3-0.1,19.1-1.1
		c5.8-1,10.5-2.5,14.2-4.4c3.7-2,6.8-4.9,9.2-8.8c2.5-3.9,3.7-8.3,3.7-13.2s-0.6-8.6-1.8-11c-1.2-2.5-3.5-5.3-6.8-8.5
		s-11.1-8.3-23.4-15.4c-12.3-7.1-19.5-12-21.6-14.7s-3.1-5.6-3.1-8.8s1.2-5.8,3.7-7.7c2.5-2,6.2-2.9,11.1-2.9s8.6,1.1,11.1,3.3
		s3.7,4.7,3.7,7.4c0,1.3,0,2.7,0,4c4.5,0,9,0,13.6,0c4.5,0,9,0,13.6,0c0-1.2,0-2.5,0-3.7c0-2.5-0.8-5.6-2.5-9.6
		c-1.6-3.9-3.9-7-6.8-9.2s-6.8-4-11.7-5.5c-4.9-1.5-10.9-2.3-17.9-2.6C298.4,130.5,291.6,131,285.1,132.3z"/>
	<path d="M40.4,277.4c-7,1.5-11.7,2.9-14.2,4.4s-4.7,3.6-6.8,6.2c-2.1,2.7-3.3,16.7-3.7,41.9c-0.4,25.2,0.6,39.8,3.1,43.7
		c2.5,3.9,4.9,6.6,7.4,8.1s6,2.8,10.5,4s10.3,2,17.3,2.2s13.8-0.2,20.3-1.5c6.6-1.2,11.5-2.8,14.8-4.8s6.2-5.3,8.6-9.9
		s3.7-10.2,3.7-16.5c0-3.2,0-6.4,0-9.6c-4.5,0-9,0-13.6,0c-4.5,0-9,0-13.6,0c0,3.3,0,6.6,0,9.9c0,6.6-1,10.9-3.1,12.9
		s-4.9,3.2-8.6,3.7c-3.7,0.5-7.4,0.1-11.1-1.1c-3.7-1.2-6-2.3-6.8-3.3s-1.2-13-1.2-36s1.2-35.5,3.7-37.5s5.5-3.1,9.2-3.3
		c3.7-0.2,6.6-0.1,8.6,0.4c2.1,0.5,4.1,1.7,6.2,3.7s3.1,5.5,3.1,10.7c0,2.6,0,5.1,0,7.7c4.5,0,9,0,13.6,0c4.5,0,9,0,13.6,0
		c0-2.5,0-4.9,0-7.4c0-4.9-0.4-8.7-1.2-11.4c-0.8-2.7-3.1-5.8-6.8-9.2c-3.7-3.4-8.2-5.9-13.6-7.4c-5.3-1.5-11.5-2.3-18.5-2.6
		C54.4,275.4,47.4,276,40.4,277.4z"/>
	<path d="M119.9,331.8c0,18.4,0,36.8,0,55.1c4.7,0,9.4,0,14.2,0c4.7,0,9.4,0,14.2,0c0-8,0-15.9,0-23.9s0-15.9,0-23.9
		c5.5,0,11.1,0,16.6,0s11.1,0,16.6,0c0,8,0,15.9,0,23.9s0,15.9,0,23.9c4.9,0,9.9,0,14.8,0c4.9,0,9.9,0,14.8,0c0-18.4,0-36.8,0-55.1
		c0-18.4,0-36.8,0-55.1c-4.9,0-9.9,0-14.8,0c-4.9,0-9.9,0-14.8,0c0,7.8,0,15.7,0,23.5s0,15.7,0,23.5c-5.5,0-11.1,0-16.6,0
		s-11.1,0-16.6,0c0-7.8,0-15.7,0-23.5s0-15.7,0-23.5c-4.7,0-9.4,0-14.2,0c-4.7,0-9.4,0-14.2,0C119.9,295.1,119.9,313.5,119.9,331.8z
		"/>
	<path d="M233.3,331.8c0,18.4,0,36.8,0,55.1c13.1,0,26.3,0,39.4,0s26.3,0,39.4,0c0-2.6,0-5.1,0-7.7s0-5.1,0-7.7
		c-8.4,0-16.8,0-25.3,0c-8.4,0-16.8,0-25.3,0c0-5.5,0-11,0-16.5s0-11,0-16.5c6.6,0,13.1,0,19.7,0s13.1,0,19.7,0c0-2.6,0-5.1,0-7.7
		s0-5.1,0-7.7c-6.6,0-13.1,0-19.7,0s-13.1,0-19.7,0c0-5.1,0-10.3,0-15.4s0-10.3,0-15.4c8.4,0,16.8,0,25.3,0c8.4,0,16.8,0,25.3,0
		c0-2.6,0-5.1,0-7.7s0-5.1,0-7.7c-13.1,0-26.3,0-39.4,0s-26.3,0-39.4,0C233.3,295.1,233.3,313.5,233.3,331.8z"/>
	<path d="M330.7,331.8c0,18.4,0,36.8,0,55.1c4.7,0,9.4,0,14.2,0c4.7,0,9.4,0,14.2,0c0-18.4,0-36.8,0-55.1c0-18.4,0-36.8,0-55.1
		c-4.7,0-9.4,0-14.2,0c-4.7,0-9.4,0-14.2,0C330.7,295.1,330.7,313.5,330.7,331.8z"/>
	<path class="st0" d="M460,331.8c-9.9-36.8-22-55.1-36.4-55.1c-14.3,0-26.2,18.4-35.6,55.1c-4.7,18.4-9.4,36.8-14.2,55.1
		c4.3,0,8.6,0,12.9,0c8.6,0,13.8-3.3,15.4-9.9s8.4-9.9,20.3-9.9s18.7,3.3,20.3,9.9c1.6,6.6,7.4,9.9,17.3,9.9c4.9,0,9.9,0,14.8,0
		C469.9,368.5,464.9,350.1,460,331.8z"/>
	<path d="M423.7,130.7c-14.4,0-26.3,18.4-35.7,55.1c-4.7,18.4-9.4,36.8-14.2,55.1c4.3,0,8.6,0,12.9,0c8.6,0,13.8-3.3,15.4-9.9
		c1.6-6.6,8.4-9.9,20.3-9.9s18.7,3.3,20.3,9.9c1.6,6.6,7.4,9.9,17.2,9.9c4.9,0,9.9,0,14.8,0c-4.9-18.4-9.9-36.8-14.8-55.1
		C450.2,149.1,438.1,130.7,423.7,130.7z M424,152c0.8-0.3,13.8,52.9,12.9,53.8c-0.3,0.3-27.4,0.4-27.5,0.2
		c-0.3-0.4,9.1-35.9,9.2-36.1C419.4,167.2,423.3,152.3,424,152z"/>
	<path d="M417.8,184.4c0,0.1-0.1,0.3-0.1,0.4l0,0C417.7,184.6,417.7,184.5,417.8,184.4z"/>
	<path d="M177.3,129.8c-14.4,0-26.3,18.4-35.7,55.1c-4.7,18.4-9.4,36.8-14.2,55.1c4.3,0,8.6,0,12.9,0c8.6,0,13.8-3.3,15.4-9.9
		c1.6-6.6,8.4-9.9,20.3-9.9c11.9,0,18.7,3.3,20.3,9.9c1.6,6.6,7.4,9.9,17.2,9.9c4.9,0,9.9,0,14.8,0c-4.9-18.4-9.9-36.8-14.8-55.1
		C203.8,148.2,191.7,129.8,177.3,129.8z M177.6,151.1c0.8-0.3,13.8,52.9,12.9,53.8c-0.3,0.3-27.4,0.4-27.5,0.2
		c-0.3-0.4,9.1-35.9,9.2-36.1C173,166.3,176.9,151.3,177.6,151.1z"/>
</g>
</svg>
