<svg width="546" height="492" viewBox="0 0 546 492" fill="none" xmlns="http://www.w3.org/2000/svg">
<g clip-path="url(#clip0_22_18)">
<path d="M277.78 226.01H276.31V491.65H543.42V224.54H276.31V226.01H277.78V227.48H540.48V488.71H279.25V226.01H277.78V227.48V226.01Z" fill="rgb(255, 69, 197)"/>
<path d="M277.52 223.7L123.19 0L120.77 1.67L275.1 225.37" fill="rgb(255, 69, 197)"/>
<path d="M543.42 223.7L389.09 0L386.67 1.67L541 225.37" fill="rgb(255, 69, 197)"/>
<path d="M279.01 488.11L124.68 264.41L122.26 266.09L276.59 489.79" fill="rgb(255, 69, 197)"/>
<path d="M0 87.47C0 80.14 2.25 71.3 8.98 63.67C15.72 56.04 26.34 50.95 41.16 50.95C62.27 50.95 75.89 64.57 75.89 75.8V76.25C75.89 79.84 73.35 82.69 70.2 84.63C56.43 93.01 20.65 94.21 18.26 111.13C25 118.76 34.58 122.06 44.16 122.06C55.54 122.06 66.76 117.57 72.9 110.23L74.1 111.13C72.15 113.82 69.46 116.22 66.17 118.17C60.63 121.76 52.25 125.06 41.32 125.06H40.12C15.27 125.05 1.65 108.28 0.15 91.07C0 89.87 0 88.67 0 87.48V87.47ZM9.43 85.52V87.17C10.03 96.9 12.87 104.38 17.21 109.92C18.41 93.3 51.49 91.66 62.57 83.13C66.01 80.59 66.61 76.99 66.61 74.6C66.61 73.85 66.46 72.95 66.31 72.06C63.17 60.08 54.04 52.9 39.22 52.9C26.35 52.9 15.87 61.88 11.38 74.01C10.03 77.75 9.43 81.49 9.43 85.54V85.52Z" fill="rgb(255, 69, 197)"/>
<path d="M160.91 91.22C173.78 86.73 186.21 79.99 186.21 68.62V68.17C185.01 58.14 181.27 52.75 169.89 52.75H169.29C162.7 52.9 159.26 55 157.46 57.24C156.41 58.59 155.66 60.08 155.51 61.73H145.48C145.48 61.43 147.58 53.2 164.49 51.55C166.29 51.4 168.38 51.25 170.63 51.25C189.94 51.25 195.18 60.08 195.18 78.64V112.32C195.18 151.24 231.4 158.57 243.98 158.57C256.56 158.57 278.41 155.88 278.41 143.15C278.41 119.95 210.75 136.11 210.75 115.31C210.75 111.72 211.5 109.47 217.34 101.69C210.3 96.3 204.62 89.71 204.62 80.13C204.62 62.62 223.48 50.49 243.84 50.49C248.03 50.49 252.37 50.94 256.56 52.14C256.71 51.99 256.71 51.84 256.86 51.69C261.2 46.45 268.98 42.41 278.71 42.41C279.61 42.41 280.66 42.56 281.7 42.56V52.14C277.36 49.3 273.62 48.25 270.62 47.8C270.02 47.8 269.27 47.65 268.67 47.65C264.78 47.65 261.19 49.6 258.94 52.14L258.49 52.74C274.51 57.98 283.49 69.36 283.49 80.13C283.49 97.94 263.88 109.92 243.97 109.92C237.23 109.92 230.2 108.42 224.06 105.43C222.41 104.68 220.62 103.78 218.97 102.74L217.77 104.24C216.87 105.29 216.12 106.34 215.52 107.38C214.47 109.18 213.27 111.72 213.27 113.67V113.97C213.27 123.4 231.83 124.15 250.99 125.2C270 126.1 289.01 128.19 289.01 141.37C289.01 154.55 263.26 160.53 242.31 160.53C232.13 160.53 186.63 157.99 186.63 115.47C183.34 117.57 171.96 125.05 159.24 125.05C146.52 125.05 135.29 119.96 135.29 107.84C135.29 100.21 148.16 95.72 160.89 91.22H160.91ZM144.74 106.04V106.79C145.49 118.17 153.27 121.91 161.66 121.91C170.94 121.91 180.97 117.57 186.66 113.08V75.06C182.62 84.04 171.54 89.13 162.11 92.57C155.52 94.97 149.99 97.66 146.84 100.8C145.49 102.15 144.74 103.94 144.74 106.04V106.04ZM213.3 81.04C213.3 81.49 212.55 85.53 216.14 92.27C217.49 94.52 218.83 96.31 220.18 97.96C226.62 89.58 237.54 76.25 255.51 53.5C252.67 52.6 249.67 52.15 246.53 52.15C241.29 52.15 235.9 53.35 230.36 55.74C223.18 58.73 217.79 64.57 215.24 71.16C213.89 74.3 213.29 77.6 213.29 81.04H213.3ZM221.68 99.3C227.67 104.69 235.75 107.23 243.98 107.23C249.52 107.23 254.91 106.03 259.7 104.09C270.78 99.45 275.12 89.12 275.12 80.74C275.12 79.39 275.57 75.05 272.13 68.32C268.54 61.28 263.6 56.64 257.46 54.1L221.68 99.31V99.3Z" fill="rgb(255, 69, 197)"/>
<path d="M286.23 88.07C286.23 66.66 304.19 52.44 325 52.44C327.84 52.44 330.99 52.74 334.13 53.34C331.29 52.89 328.29 52.89 325.3 53.34C310.78 55.44 299.4 66.36 295.51 80.43C294.16 84.77 293.86 89.26 294.31 93.6C295.96 109.02 308.38 123.24 324.55 123.24C344.31 123.24 359.73 104.98 359.73 85.82C360.93 85.37 362.13 84.92 363.47 84.47C364.67 84.02 366.01 83.57 367.36 82.97C367.66 84.62 367.81 86.41 367.81 88.06C367.81 109.77 348.8 125.03 327.69 125.03C306.58 125.03 286.23 109.91 286.23 88.06V88.07ZM334.13 84.03C329.64 81.93 325.6 77.89 325.3 72.65C325 70.4 325.3 68.16 326.35 65.91C328.45 60.97 333.39 57.83 338.47 56.78C341.16 56.18 343.86 56.18 346.55 56.93C351.79 58.43 357.48 62.92 360.47 67.41C361.52 68.46 362.27 69.66 362.86 70.85C364.51 73.39 365.7 76.24 366.6 79.23C368.85 78.18 370.79 76.83 372.74 75.19C374.69 73.69 376.03 72.5 377.08 71.6V63.37C376.78 59.33 374.39 56.04 370.94 53.94V53.04C375.88 51.99 381.12 50.05 386.36 47.35V65.16C390.85 62.32 395.19 59.62 399.53 57.08C402.82 55.13 410.01 51.39 414.05 51.39C417.49 51.24 420.34 51.54 422.58 52.44C424.83 53.34 426.47 54.39 427.52 55.73C428.87 57.23 429.77 59.02 430.36 60.97H419.88L419.73 59.92C419.58 59.17 419.13 58.42 418.68 57.52C417.33 55.27 414.94 54.23 412.39 54.23C405.21 54.23 394.43 61.42 388.74 65.46C385.45 67.86 382.15 70.25 379.01 72.65C372.57 77.59 365.09 81.63 357.45 84.18C353.41 85.53 349.07 86.13 344.43 85.98C340.24 85.83 336.8 85.23 334.1 84.03H334.13ZM339.82 58.58C333.38 58.58 327.55 63.67 327.1 70.26C326.95 72.66 327.4 74.9 328.6 77C331.44 82.69 338.63 84.48 344.47 84.48C345.37 84.48 346.57 84.33 347.91 84.18C349.26 84.03 350.6 83.88 352.1 83.73C353.45 83.58 354.94 83.28 356.29 82.83C357.64 82.53 358.68 82.23 359.43 81.78C359.28 79.68 358.68 77.44 357.93 74.89C354.94 66.81 349.55 58.57 339.82 58.57V58.58ZM370.95 122.95V122.05C374.39 120.1 376.79 116.51 377.09 112.47V75.2C378.74 74.15 380.23 73.25 381.88 72.21C383.38 71.31 384.87 70.41 386.37 69.37V112.78C386.67 116.67 389.21 119.97 392.36 122.06V122.96H370.95V122.95Z" fill="rgb(255, 69, 197)"/>
<path d="M428.08 107.83C428.08 100.2 440.95 96 453.68 91.36C466.55 86.72 478.98 80.13 478.98 68.61V68.16C477.78 58.43 474.04 52.89 462.66 52.89H462.06C455.47 53.04 452.03 55.14 450.23 57.38C449.18 58.73 448.43 60.07 448.28 61.72H438.25L438.85 60.37C439.9 57.97 444.84 52.89 457.26 51.69C458.16 51.54 459.21 51.39 460.25 51.39H463.39C482.7 51.39 487.94 60.22 487.94 78.78V111.86C488.09 116.05 490.34 119.94 493.93 122.19V123.09H487.04C484.79 123.09 483 122.34 481.65 120.84C480.15 119.34 479.4 117.55 479.4 115.45C476.11 117.55 464.73 125.03 452.01 125.03C442.28 125.03 433.9 122.19 430.01 115.6C428.66 113.5 428.06 110.96 428.06 107.82L428.08 107.83ZM437.51 106.18V106.93C438.56 118.16 445.89 121.9 454.43 121.9C463.56 121.9 473.89 117.56 479.43 113.22V75.2C475.39 84.18 464.31 89.12 454.88 92.56C448.29 94.96 442.76 97.65 439.61 100.79C438.26 102.29 437.51 104.08 437.51 106.18Z" fill="rgb(255, 69, 197)"/>
<path d="M489.3 45.41C489.6 41.52 490.8 38.08 492.89 34.93C496.63 29.69 503.22 24.3 517.44 24.3C528.67 24.3 536.3 28.34 540.79 33.58C545.28 38.97 545.88 43.91 545.88 46.75C545.88 47.95 545.73 49.15 545.43 50.19C543.33 58.57 535.55 65.46 528.51 72.79C521.33 80.27 514.89 90.3 514.89 104.82H513.09C513.09 73.09 532.1 70.24 537.49 48.24C537.79 46.89 537.94 45.55 537.94 44.2C537.94 41.36 537.49 36.87 533.9 32.52C530.31 28.18 524.62 26.23 519.08 26.23C518.03 26.23 516.68 26.23 515.49 26.38C506.06 27.43 501.87 32.37 500.07 36.71C499.17 38.96 498.72 41.35 498.72 43.9V45.4H489.29L489.3 45.41ZM507.86 117.71C507.86 114.72 510.56 112.32 514 112.32C517.44 112.32 520.14 114.71 520.14 117.71C520.14 120.71 517.44 123.1 514 123.1C512.35 123.1 510.86 122.5 509.66 121.45C508.46 120.4 507.86 119.05 507.86 117.71Z" fill="rgb(255, 69, 197)"/>
</g>
<defs>
<clipPath id="clip0_22_18">
<rect width="545.88" height="491.65" fill="white"/>
</clipPath>
</defs>
</svg>
