<svg width="374" height="438" viewBox="0 0 374 438" fill="none" xmlns="http://www.w3.org/2000/svg">
<g clip-path="url(#clip0_54_2)">
<path d="M152.8 33.17C152.8 26.51 154.84 18.49 160.96 11.56C167.08 4.63 176.73 0 190.19 0C209.36 0 221.73 12.37 221.73 22.57V22.98C221.73 26.24 219.42 28.83 216.56 30.59C204.05 38.2 171.56 39.29 169.39 54.65C175.51 61.58 184.21 64.57 192.91 64.57C203.24 64.57 213.44 60.49 219.01 53.83L220.1 54.65C218.33 57.1 215.89 59.27 212.89 61.04C207.86 64.3 200.25 67.29 190.32 67.29H189.23C166.66 67.29 154.29 52.06 152.93 36.43C152.79 35.34 152.79 34.26 152.79 33.17H152.8ZM161.36 31.4V32.9C161.9 41.74 164.49 48.53 168.43 53.56C169.52 38.47 199.56 36.98 209.62 29.23C212.75 26.92 213.29 23.66 213.29 21.48C213.29 20.8 213.15 19.98 213.02 19.17C210.17 8.29 201.87 1.77 188.42 1.77C176.73 1.77 167.21 9.93 163.13 20.94C161.91 24.34 161.36 27.74 161.36 31.41V31.4Z" fill="rgb(255, 69, 197)"/>
<path d="M23.25 161.77C34.94 157.69 46.22 151.57 46.22 141.24V140.83C45.13 131.72 41.73 126.83 31.4 126.83H30.86C24.88 126.97 21.75 128.87 20.12 130.91C19.17 132.13 18.49 133.49 18.35 134.99H9.24C9.24 134.72 11.14 127.24 26.5 125.75C28.13 125.61 30.03 125.48 32.07 125.48C49.61 125.48 54.36 133.5 54.36 150.36V180.95C54.36 216.29 87.26 222.96 98.68 222.96C110.1 222.96 129.95 220.51 129.95 208.96C129.95 187.89 68.51 202.57 68.51 183.67C68.51 180.41 69.19 178.37 74.49 171.3C68.1 166.41 62.93 160.42 62.93 151.72C62.93 135.81 80.06 124.8 98.55 124.8C102.36 124.8 106.3 125.21 110.1 126.3C110.24 126.16 110.24 126.03 110.37 125.89C114.31 121.13 121.38 117.46 130.22 117.46C131.04 117.46 131.99 117.6 132.94 117.6V126.3C129 123.72 125.6 122.77 122.88 122.36C122.34 122.36 121.66 122.22 121.11 122.22C117.58 122.22 114.31 123.99 112.27 126.3L111.86 126.84C126.41 131.6 134.56 141.93 134.56 151.72C134.56 167.9 116.75 178.77 98.67 178.77C92.55 178.77 86.16 177.41 80.59 174.69C79.09 174.01 77.46 173.19 75.97 172.24L74.88 173.6C74.06 174.55 73.38 175.5 72.84 176.46C71.89 178.09 70.8 180.4 70.8 182.17V182.44C70.8 191 87.66 191.68 105.06 192.64C122.32 193.46 139.59 195.36 139.59 207.32C139.59 219.28 116.21 224.72 97.18 224.72C87.94 224.72 46.61 222.41 46.61 183.8C43.62 185.7 33.29 192.5 21.73 192.5C10.17 192.5 0 187.87 0 176.86C0 169.93 11.69 165.85 23.25 161.77ZM8.57 175.23V175.91C9.25 186.24 16.32 189.64 23.93 189.64C32.36 189.64 41.47 185.7 46.63 181.62V147.09C42.96 155.25 32.9 159.87 24.34 163C18.36 165.17 13.33 167.62 10.47 170.48C9.25 171.7 8.57 173.33 8.57 175.24V175.23ZM70.83 152.53C70.83 152.94 70.15 156.61 73.41 162.73C74.63 164.77 75.86 166.4 77.08 167.9C82.93 160.29 92.85 148.19 109.16 127.53C106.58 126.71 103.86 126.31 101 126.31C96.24 126.31 91.35 127.4 86.32 129.57C79.8 132.29 74.9 137.59 72.59 143.57C71.37 146.42 70.82 149.41 70.82 152.54L70.83 152.53ZM78.44 169.11C83.88 174 91.22 176.31 98.7 176.31C103.73 176.31 108.62 175.22 112.97 173.46C123.03 169.25 126.97 159.87 126.97 152.25C126.97 151.03 127.38 147.08 124.25 140.97C120.99 134.58 116.5 130.37 110.93 128.06L78.44 169.11Z" fill="rgb(255, 69, 197)"/>
<path d="M137.16 158.91C137.16 139.47 153.47 126.56 172.37 126.56C174.95 126.56 177.81 126.83 180.66 127.38C178.08 126.97 175.36 126.97 172.64 127.38C159.45 129.28 149.12 139.21 145.59 151.98C144.37 155.92 144.09 160 144.5 163.94C146 177.94 157.28 190.86 171.96 190.86C189.9 190.86 203.91 174.28 203.91 156.87C205 156.46 206.08 156.05 207.31 155.65C208.4 155.24 209.62 154.83 210.84 154.29C211.11 155.79 211.25 157.42 211.25 158.91C211.25 178.62 193.99 192.49 174.82 192.49C155.65 192.49 137.16 178.76 137.16 158.91V158.91ZM180.66 155.24C176.58 153.34 172.91 149.67 172.64 144.91C172.37 142.87 172.64 140.83 173.59 138.79C175.49 134.3 179.98 131.45 184.6 130.5C187.05 129.96 189.49 129.96 191.94 130.64C196.7 132 201.86 136.08 204.58 140.16C205.53 141.11 206.21 142.2 206.75 143.29C208.25 145.6 209.33 148.18 210.15 150.9C212.19 149.95 213.96 148.73 215.72 147.23C217.49 145.87 218.71 144.78 219.66 143.97V136.49C219.39 132.82 217.21 129.83 214.09 127.93V127.11C218.58 126.16 223.33 124.39 228.09 121.94V138.12C232.17 135.54 236.11 133.09 240.05 130.78C243.04 129.01 249.57 125.61 253.24 125.61C256.37 125.47 258.95 125.75 260.99 126.56C263.03 127.38 264.53 128.33 265.48 129.55C266.7 130.91 267.52 132.54 268.06 134.31H258.54L258.4 133.36C258.26 132.68 257.86 132 257.45 131.18C256.23 129.14 254.05 128.19 251.74 128.19C245.21 128.19 235.43 134.72 230.26 138.39C227.27 140.56 224.28 142.74 221.42 144.92C215.58 149.41 208.78 153.08 201.84 155.39C198.17 156.61 194.23 157.16 190.01 157.02C186.2 156.88 183.08 156.34 180.63 155.25L180.66 155.24ZM185.83 132.13C179.98 132.13 174.68 136.75 174.27 142.73C174.13 144.91 174.54 146.94 175.63 148.85C178.21 154.02 184.74 155.65 190.04 155.65C190.86 155.65 191.94 155.51 193.17 155.38C194.4 155.25 195.62 155.11 196.98 154.97C198.2 154.83 199.56 154.56 200.79 154.15C202.01 153.88 202.97 153.61 203.65 153.2C203.51 151.3 202.97 149.26 202.29 146.95C199.57 139.61 194.68 132.13 185.84 132.13H185.83ZM214.11 190.58V189.76C217.24 187.99 219.41 184.73 219.68 181.06V147.21C221.18 146.26 222.53 145.44 224.03 144.49C225.39 143.67 226.75 142.86 228.11 141.91V181.33C228.38 184.86 230.69 187.86 233.55 189.76V190.58H214.11Z" fill="rgb(255, 69, 197)"/>
<path d="M266.03 176.86C266.03 169.93 277.72 166.12 289.28 161.91C300.97 157.7 312.25 151.71 312.25 141.25V140.84C311.16 132 307.76 126.97 297.43 126.97H296.89C290.91 127.11 287.78 129.01 286.15 131.05C285.2 132.27 284.52 133.5 284.38 134.99H275.27L275.81 133.77C276.76 131.59 281.25 126.97 292.53 125.89C293.35 125.75 294.3 125.62 295.25 125.62H298.1C315.64 125.62 320.39 133.64 320.39 150.5V180.54C320.53 184.35 322.56 187.88 325.83 189.92V190.74H319.58C317.54 190.74 315.91 190.06 314.69 188.7C313.33 187.34 312.65 185.71 312.65 183.81C309.66 185.71 299.33 192.51 287.77 192.51C278.93 192.51 271.32 189.93 267.79 183.95C266.57 182.05 266.02 179.74 266.02 176.88L266.03 176.86ZM274.59 175.36V176.04C275.54 186.24 282.2 189.63 289.95 189.63C298.24 189.63 307.62 185.69 312.65 181.75V147.22C308.98 155.38 298.92 159.86 290.36 162.99C284.38 165.16 279.35 167.61 276.49 170.47C275.27 171.83 274.59 173.46 274.59 175.36Z" fill="rgb(255, 69, 197)"/>
<path d="M321.77 120.17C322.04 116.64 323.13 113.51 325.03 110.65C328.43 105.89 334.41 101 347.32 101C357.52 101 364.45 104.67 368.53 109.43C372.61 114.32 373.15 118.81 373.15 121.39C373.15 122.48 373.01 123.56 372.74 124.52C370.84 132.13 363.77 138.39 357.38 145.05C350.85 151.85 345.01 160.96 345.01 174.14H343.38C343.38 145.32 360.64 142.74 365.54 122.75C365.81 121.53 365.95 120.3 365.95 119.08C365.95 116.5 365.54 112.42 362.28 108.48C359.02 104.54 353.85 102.77 348.82 102.77C347.87 102.77 346.65 102.77 345.56 102.91C337 103.86 333.19 108.35 331.56 112.29C330.74 114.33 330.34 116.5 330.34 118.81V120.17H321.78H321.77ZM338.63 185.83C338.63 183.11 341.08 180.94 344.2 180.94C347.32 180.94 349.77 183.12 349.77 185.83C349.77 188.54 347.32 190.72 344.2 190.72C342.7 190.72 341.35 190.18 340.26 189.22C339.17 188.27 338.63 187.05 338.63 185.82V185.83Z" fill="rgb(255, 69, 197)"/>
<path d="M326.37 237.93L209.89 69.09L208.06 70.35L323.68 237.94H129.68L13.22 69.14L11.39 70.4L126.99 237.95V433.4L12.34 267.23L10.51 268.49L126.98 437.31V437.33H326.36V237.94H326.34L326.36 237.92L326.37 237.93ZM324.17 435.13H129.18V240.14H324.17V435.13Z" fill="rgb(255, 69, 197)"/>
</g>
<defs>
<clipPath id="clip0_54_2">
<rect width="373.15" height="437.33" fill="white"/>
</clipPath>
</defs>
</svg>
