<svg width="582" height="372" viewBox="0 0 582 372" fill="none" xmlns="http://www.w3.org/2000/svg">
<path d="M6.9 168.3C7.3 161.3 9.8 152.6 16.5 144.6C23.2 136.6 33.3 130.5 47.2 128.8C66.9 126.4 78.9 137.8 78.4 148.5C78.4 148.6 78.4 148.8 78.4 148.9C78.2 152.3 75.7 155.3 72.7 157.5C59.4 167.1 26 172.3 22.9 188.7C28.8 195.2 37.6 197.2 46.5 196.1C57.1 194.8 67.8 189.2 73.9 181.5L75 182.2C73.1 185 70.4 187.6 67.2 189.8C61.9 193.9 53.9 198 43.7 199.2C43.3 199.3 43 199.3 42.6 199.3C19.4 202.1 7.6 187.7 7 171.5C6.8 170.5 6.9 169.4 6.9 168.3ZM15.8 165.3C15.8 165.9 15.7 166.3 15.7 166.9C15.8 176.1 18.1 182.9 21.8 187.7C23.7 171.7 54.7 166.4 65.4 157C68.7 154.2 69.5 150.7 69.6 148.4C69.6 147.7 69.5 146.8 69.4 146C67.1 134.9 58.9 129.1 45.1 130.8C33.1 132.3 22.9 142 18.1 154.1C16.8 157.8 16 161.5 15.8 165.3Z" fill="rgb(239, 0, 58)"/>
<path d="M132.9 157.5C134.5 127.1 176.3 129.5 192.5 114C196.1 110.6 197.9 106.1 198.1 102.4C198.1 102.1 198.1 101.7 198.2 101.3L199.6 73.9C204.4 75.7 208.9 77.2 213.8 77.5V78.4C210.2 81 208.1 84.2 207.6 88.1L203.4 167.7C203.6 171.5 205.4 174.7 208.5 176.4V177.3L202 178C198.2 178.5 195 176.2 194.6 172.8L195 165.2C191.5 171.2 184.1 180.9 169.7 183.8C167.7 184.2 165.8 184.6 164 184.8C158.3 185.5 150.5 185.9 143.5 182.1C140 180.3 137.2 177.3 135.4 173.3C133.4 169.5 132.6 164.2 132.9 157.5ZM141.6 156.1C141.5 157.1 141.5 158.1 141.6 159.1C142.1 178.6 151.7 184.2 167.4 182.3C167.7 182.3 168 182.2 168.2 182.2C172.1 181.7 176.8 180 181.2 177.2C189.8 171.7 195.2 162.3 195.7 152.7L197.8 112.9C197.7 112.5 197.7 111.9 197.7 111.5L197.8 110.1C191.7 120.9 177.3 125.5 164.7 130.5C156.1 134 148.9 138.4 144.6 145.6C142.8 148.5 141.8 152 141.6 156.1Z" fill="rgb(239, 0, 58)"/>
<path d="M215.7 131.3C221.7 114 237.4 104.4 253.8 102.4C258.7 101.8 263.1 102 267.1 102.9C275.7 105.2 285.5 111.4 285 122.1C285 123.9 284.4 125.7 283.3 127.1C280.2 131.3 275.7 133.6 271.2 135.5C264.4 138.5 257.4 141.3 250.5 144.1C242.7 147.2 231.3 153 229.4 162.3C235.1 168.3 242.7 170.4 251.6 169.3C269.5 167.1 281.6 153.3 291.6 137.6L293.1 109.4C293 105.4 291.1 102.4 288 100.7V99.8C292.9 98.3 298.1 95.7 302.5 92.8L300.9 122.9C307.1 113.2 318.4 95.4 329.1 92.8C333.7 91.7 338.2 91.3 342.6 91.4C351.6 92 358.3 95.8 361.9 103.9C363.8 107.9 364.2 113.1 363.4 119.6C361.3 136.4 347 144.2 332.4 149.3C327.3 151.1 322.5 152.8 318 154.6C310.9 157.6 303.4 160.9 299.5 168.5C298.4 170.6 297.9 173.1 297.9 175.9L297.2 189.2C297.3 193 299 196.9 302.3 198.5V199.4L282.5 201.8V200.9C286.1 198.5 288.3 194.2 288.7 190.2L291.2 143.4C292.7 141.1 294.2 138.6 295.9 136.3C297.5 134 299.1 131.5 300.6 129.2L298.6 166.9C302.9 159.1 310.9 154.9 318.4 151.7C322.5 149.9 326.6 148.3 330.9 146.5C344.4 141.2 353.8 133.3 355 117.9C355.2 113.8 354.9 110.1 354 107.1C350.9 98 344.1 94.4 334.3 94.4C332.1 94.4 329.8 94.8 327.7 95.5C320.9 98 314.9 104.9 310.7 110.8C307.4 115.5 304.2 120.4 301 125.6C297.8 131 294.5 136.2 291 141.6C284.5 151.8 276.5 161.4 266.2 167.6C261.2 170.6 255.4 172.6 249 173.3C229.9 175.2 214.4 165.9 213.4 145.4C213.4 140.6 214 136 215.7 131.3ZM224.9 127.7C223.3 131.9 222.4 136.1 222.4 140.5C222.4 148.4 224 155.6 228.5 161.3C229.4 152.7 240.1 146.7 247.1 143.4C253.2 140.7 259.3 137.9 265.4 134.9C269.7 132.8 274 130 275.8 125.3C276.5 123.4 276.6 121.4 276.2 119.6C273.4 107.3 264.4 102.9 251.9 104.4C239.6 105.9 229.7 115.8 224.9 127.7Z" fill="rgb(239, 0, 58)"/>
<path d="M366.4 124.8C367.4 105.4 384.6 87.7 405.5 85.1C426.7 82.5 443.5 96 442.5 115.4C441.5 134.9 424.5 152.5 403.2 155.1C387.4 157 374.2 150 368.7 138.1C366.8 134.1 366.1 129.7 366.4 124.8ZM372.7 126.5C372.7 127.1 371.6 131.9 375 140.1C378.8 149.7 388.7 154 399.7 152.7C404.9 152.1 410.1 150.1 415.3 147C431.7 136.8 440.4 117.3 434 100.5C430.2 90.9 420.4 86.6 409.3 87.9C403.9 88.6 398.5 90.5 393.2 93.8C385.2 98.9 378.8 106.3 375.5 114.5C373.8 118.4 372.9 122.3 372.7 126.5Z" fill="rgb(239, 0, 58)"/>
<path d="M447 81.6L466.8 79.2V80.1C463.5 82.1 461.1 85.9 460.9 90L458.9 127.7C458.3 139.7 471.9 152.2 488.8 150.1C488.9 150.1 489.2 150 489.5 150C510.7 147 517.6 135.6 518 127.9C518 127.8 518 127.5 518 127.3C518.1 114.1 468.3 115.3 469.4 94.6C469.5 92.2 470.1 90.1 471 88.3C475.2 79.1 486.7 74.3 496.9 73.1C508.6 71.7 515.2 73.4 519 75.3C521.3 76.6 522.7 78 523.6 79.7L514 80.9C513.7 79.2 512.9 77.9 511.4 76.8C508.9 75 504.5 73.5 496.4 74.5C496 74.6 495.6 74.6 495.1 74.7C486.7 75.7 475.4 81.8 475 90.4C474.2 106.4 526.3 105.1 525.3 123.6C524.4 140.4 509.7 148.9 487.8 151.6C465.2 154.4 449.6 141.4 450.1 131.7C450.1 131.7 450.1 131.6 450.1 131.4L452.2 90.9C452.3 87.1 450.2 84.2 447 82.5V81.6ZM458.8 52.7C462 52.3 464.4 54.4 464.2 57.3C464.1 60 461.4 62.9 458.2 63.3C455 63.7 452.3 61.5 452.5 58.8C452.6 55.8 455.6 53.1 458.8 52.7Z" fill="rgb(239, 0, 58)"/>
<path d="M525.1 64.8C525.6 61.1 526.9 57.6 529 54.4C532.8 49 539.2 43.1 552.4 41.5C562.9 40.2 569.8 43.2 573.7 47.7C577.6 52.3 577.9 57 577.8 59.7C577.7 60.8 577.5 62 577.2 63C574.8 71.2 567.2 78.7 560.3 86.5C553.2 94.5 546.7 104.8 546 118.6L544.3 118.8C545.9 88.6 563.8 83.7 569.9 62.1C570.2 60.8 570.5 59.5 570.5 58.2C570.6 55.5 570.4 51.3 567.3 47.5C564.2 43.8 559 42.6 553.8 43.2C552.8 43.3 551.6 43.5 550.4 43.8C541.6 45.9 537.4 51.1 535.5 55.4C534.6 57.6 534 60 533.9 62.4C533.9 62.8 533.8 63.4 533.8 63.8L525.1 64.8ZM538.8 131.6C538.9 128.7 541.6 126.2 544.8 125.8C548 125.4 550.4 127.4 550.3 130.2C550.2 132.9 547.5 135.6 544.3 136C542.8 136.2 541.4 135.8 540.3 134.9C539.2 134.1 538.8 132.9 538.8 131.6Z" fill="rgb(239, 0, 58)"/>
<path d="M268 233.3V234.6H492.3V9H266.8V234.6H268V233.3H269.2V11.5H489.9V232.1H268V233.3H269.2H268Z" fill="rgb(239, 0, 58)"/>
<path d="M266.1 233.6L77.2 363.9L78.6 365.9L267.5 235.6" fill="rgb(239, 0, 58)"/>
<path d="M266.1 9L77.2 139.3L78.6 141.4L267.5 11.1" fill="rgb(239, 0, 58)"/>
<path d="M489.4 232.3L300.4 362.6L301.9 364.7L490.8 234.3" fill="rgb(239, 0, 58)"/>
</svg>
